{"title":"Videography - Blur - DVDQ [.vob] - Part 4","uid":5821567,"size":303723513,"categoryP":"video","categoryS":"music_videos","magnet":"?xt=urn:btih:e27a1d8a1ac166264798d943e86e489b138a5b96&amp;dn=Videography+-+Blur+-+DVDQ+%5B.vob%5D+-+Part+4&amp;tr=udp%3A%2F%2Ftracker.openbittorrent.com%3A80&amp;tr=udp%3A%2F%2Fopen.demonii.com%3A1337&amp;tr=udp%3A%2F%2Ftracker.coppersurfer.tk%3A6969&amp;tr=udp%3A%2F%2Fexodus.desync.com%3A6969","seeders":0,"leechers":0,"uploader":"dehou","files":4,"time":1284077957,"description":"Part 4\n\nBlur - Crazy Beat [2003].vob\nBlur - Out Of Time [2003].vob\n\nBonus video\n\nBlur - There's No Other Way [US Version] [1991].mp4\n\n\nFormat info for Crazy Beat\n\nVideo\nID                               : 224 (0xE0)\nFormat                           : MPEG Video\nFormat version                   : Version 2\nFormat profile                   : Main@Main\nFormat settings, Matrix          : Default\nDuration                         : 3mn 17s\nBit rate mode                    : Constant\nBit rate                         : 4 389 Kbps\nNominal bit rate                 : 4 500 Kbps\nWidth                            : 720 pixels\nHeight                           : 480 pixels\nDisplay aspect ratio             : 4:3\nFrame rate                       : 29.970 fps\nStandard                         : NTSC\nColorimetry                      : 4:2:0\nScan type                        : Interlaced\nScan order                       : Top Field First\nBits/(Pixel*Frame)               : 0.424\nStream size                      : 103 MiB (88%)\n\nAudio\nID                               : 128 (0x80)\nFormat                           : AC-3\nFormat/Info                      : Audio Coding 3\nDuration                         : 3mn 17s\nBit rate mode                    : Constant\nBit rate                         : 384 Kbps\nChannel(s)                       : 2 channels\nChannel positions                : L R\nSampling rate                    : 48.0 KHz\nVideo delay                      : 9ms\nStream size                      : 9.02 MiB (8%)\n\n\nFormat info for Out Of Time\n\nVideo\nID                               : 224 (0xE0)\nFormat                           : MPEG Video\nFormat version                   : Version 2\nFormat profile                   : Main@Main\nFormat settings, Matrix          : Default\nDuration                         : 3mn 49s\nBit rate mode                    : Variable\nBit rate                         : 4 030 Kbps\nNominal bit rate                 : 8 264 Kbps\nWidth                            : 720 pixels\nHeight                           : 576 pixels\nDisplay aspect ratio             : 4:3\nFrame rate                       : 25.000 fps\nStandard                         : PAL\nColorimetry                      : 4:2:0\nScan type                        : Interlaced\nScan order                       : Top Field First\nBits/(Pixel*Frame)               : 0.389\nStream size                      : 110 MiB (70%)\n\nAudio\nID                               : 160 (0xA0)\nFormat                           : PCM\nFormat settings, Endianness      : Big\nFormat settings, Sign            : Signed\nMuxing mode                      : DVD-Video\nDuration                         : 3mn 49s\nBit rate mode                    : Constant\nBit rate                         : 1 536 Kbps\nChannel(s)                       : 2 channels\nChannel positions                : Front: L R\nSampling rate                    : 48.0 KHz\nResolution                       : 16 bits\nStream size                      : 41.9 MiB (26%)\n\n\nFormat info for There's No Other Way [US Version]\n\nVideo\nID                               : 2\nFormat                           : AVC\nFormat/Info                      : Advanced Video Codec\nFormat profile                   : &lt;a class=&quot;__cf_email__&quot; href=&quot;/cdn-cgi/l/email-protection&quot; data-cfemail=&quot;f2b09381979e9b9c97b2bec0dcc3&quot;&gt;[email&amp;#160;protected]&lt;/a&gt;&lt;script data-cfhash='f9e31' type=&quot;text/javascript&quot;&gt;\n/* &lt;![CDATA[ */!function(){try{var t=&quot;currentScript&quot;in document?document.currentScript:function(){for(var t=document.getElementsByTagName(&quot;script&quot;),e=t.length;e--;)if(t[e].getAttribute(&quot;data-cfhash&quot;))return t[e]}();if(t&amp;&amp;t.previousSibling){var e,r,n,i,c=t.previousSibling,a=c.getAttribute(&quot;data-cfemail&quot;);if(a){for(e=&quot;&quot;,r=parseInt(a.substr(0,2),16),n=2;a.length-n;n+=2)i=parseInt(a.substr(n,2),16)^r,e+=String.fromCharCode(i);e=document.createTextNode(e),c.parentNode.replaceChild(e,c)}t.parentNode.removeChild(t);}}catch(u){}}()/* ]]&gt; */&lt;/script&gt;\nFormat settings, CABAC           : No\nFormat settings, ReFrames        : 1 frame\nCodec ID                         : avc1\nCodec ID/Info                    : Advanced Video Coding\nDuration                         : 3mn 12s\nBit rate mode                    : Variable\nBit rate                         : 501 Kbps\nMaximum bit rate                 : 1 171 Kbps\nWidth                            : 466 pixels\nHeight                           : 360 pixels\nDisplay aspect ratio             : 1.294\nFrame rate mode                  : Constant\nFrame rate                       : 25.000 fps\nResolution                       : 24 bits\nColorimetry                      : 4:2:0\nScan type                        : Progressive\nBits/(Pixel*Frame)               : 0.119\nStream size                      : 11.5 MiB (80%)\n\nAudio\nID                               : 1\nFormat                           : AAC\nFormat/Info                      : Advanced Audio Codec\nFormat version                   : Version 4\nFormat profile                   : LC\nFormat settings, SBR             : No\nCodec ID                         : 40\nDuration                         : 3mn 12s\nBit rate mode                    : Variable\nBit rate                         : 119 Kbps\nMaximum bit rate                 : 130 Kbps\nChannel(s)                       : 2 channels\nChannel positions                : L R\nSampling rate                    : 44.1 KHz\nResolution                       : 16 bits\nStream size                      : 2.73 MiB (19%)\n\n\nMultimedia Analysis by Mediainfo &lt;a href=&quot; http://mediainfo.sourceforge.net&quot; rel=&quot;nofollow&quot; target=&quot;_NEW&quot;&gt; http://mediainfo.sourceforge.net&lt;/a&gt;\n\n\nVisit &lt;a href=&quot; http://thepiratebay.se/user/dehou/&quot; rel=&quot;nofollow&quot; target=&quot;_NEW&quot;&gt; http://thepiratebay.se/user/dehou/&lt;/a&gt; for more parts and videographys","torrent":{"xt":"urn:btih:e27a1d8a1ac166264798d943e86e489b138a5b96","amp;dn":"Videography+-+Blur+-+DVDQ+%5B.vob%5D+-+Part+4","amp;tr":["udp%3A%2F%2Ftracker.openbittorrent.com%3A80","udp%3A%2F%2Fopen.demonii.com%3A1337","udp%3A%2F%2Ftracker.coppersurfer.tk%3A6969","udp%3A%2F%2Fexodus.desync.com%3A6969"],"infoHash":"e27a1d8a1ac166264798d943e86e489b138a5b96","infoHashBuffer":{"type":"Buffer","data":[226,122,29,138,26,193,102,38,71,152,217,67,232,110,72,155,19,138,91,150]},"announce":[],"urlList":[]}}